<mxfile host="app.diagrams.net" agent="Mozilla/5.0 (Windows NT 10.0; Win64; x64) AppleWebKit/537.36 (KHTML, like Gecko) Chrome/128.0.0.0 Safari/537.36" version="24.7.8" pages="2">
  <diagram name="DIAGRAMA DE SECUENCIAS" id="_cpI_kG4gNLglXjiuKZE">
    <mxGraphModel dx="1434" dy="772" grid="1" gridSize="10" guides="1" tooltips="1" connect="1" arrows="1" fold="1" page="1" pageScale="1" pageWidth="827" pageHeight="1169" math="0" shadow="0">
      <root>
        <mxCell id="0" />
        <mxCell id="1" parent="0" />
        <mxCell id="nWm5HzPbnDfWnMgzl1JM-1" value="&lt;span style=&quot;text-wrap: nowrap;&quot;&gt;TAREAS&lt;/span&gt;" style="shape=umlLifeline;perimeter=lifelinePerimeter;whiteSpace=wrap;html=1;container=1;dropTarget=0;collapsible=0;recursiveResize=0;outlineConnect=0;portConstraint=eastwest;newEdgeStyle={&quot;curved&quot;:0,&quot;rounded&quot;:0};" parent="1" vertex="1">
          <mxGeometry x="380" y="10" width="100" height="300" as="geometry" />
        </mxCell>
        <mxCell id="nWm5HzPbnDfWnMgzl1JM-2" value="" style="html=1;points=[[0,0,0,0,5],[0,1,0,0,-5],[1,0,0,0,5],[1,1,0,0,-5]];perimeter=orthogonalPerimeter;outlineConnect=0;targetShapes=umlLifeline;portConstraint=eastwest;newEdgeStyle={&quot;curved&quot;:0,&quot;rounded&quot;:0};" parent="nWm5HzPbnDfWnMgzl1JM-1" vertex="1">
          <mxGeometry x="45" y="60" width="10" height="220" as="geometry" />
        </mxCell>
        <mxCell id="nWm5HzPbnDfWnMgzl1JM-3" value="&lt;span style=&quot;text-wrap: nowrap;&quot;&gt;ASIGNACIONES&lt;/span&gt;" style="shape=umlLifeline;perimeter=lifelinePerimeter;whiteSpace=wrap;html=1;container=1;dropTarget=0;collapsible=0;recursiveResize=0;outlineConnect=0;portConstraint=eastwest;newEdgeStyle={&quot;curved&quot;:0,&quot;rounded&quot;:0};" parent="1" vertex="1">
          <mxGeometry x="577" y="10" width="110" height="300" as="geometry" />
        </mxCell>
        <mxCell id="nWm5HzPbnDfWnMgzl1JM-4" value="" style="html=1;points=[[0,0,0,0,5],[0,1,0,0,-5],[1,0,0,0,5],[1,1,0,0,-5]];perimeter=orthogonalPerimeter;outlineConnect=0;targetShapes=umlLifeline;portConstraint=eastwest;newEdgeStyle={&quot;curved&quot;:0,&quot;rounded&quot;:0};" parent="nWm5HzPbnDfWnMgzl1JM-3" vertex="1">
          <mxGeometry x="50" y="102.5" width="10" height="87.5" as="geometry" />
        </mxCell>
        <mxCell id="nWm5HzPbnDfWnMgzl1JM-5" value="&lt;span style=&quot;text-wrap: nowrap;&quot;&gt;&lt;i&gt;PROJECT ADMIN&lt;/i&gt;&lt;/span&gt;" style="shape=umlLifeline;perimeter=lifelinePerimeter;whiteSpace=wrap;html=1;container=1;dropTarget=0;collapsible=0;recursiveResize=0;outlineConnect=0;portConstraint=eastwest;newEdgeStyle={&quot;curved&quot;:0,&quot;rounded&quot;:0};" parent="1" vertex="1">
          <mxGeometry x="220" y="10" width="110" height="300" as="geometry" />
        </mxCell>
        <mxCell id="nWm5HzPbnDfWnMgzl1JM-6" value="" style="html=1;points=[[0,0,0,0,5],[0,1,0,0,-5],[1,0,0,0,5],[1,1,0,0,-5]];perimeter=orthogonalPerimeter;outlineConnect=0;targetShapes=umlLifeline;portConstraint=eastwest;newEdgeStyle={&quot;curved&quot;:0,&quot;rounded&quot;:0};" parent="nWm5HzPbnDfWnMgzl1JM-5" vertex="1">
          <mxGeometry x="50" y="60" width="10" height="220" as="geometry" />
        </mxCell>
        <mxCell id="nWm5HzPbnDfWnMgzl1JM-7" value="&lt;span style=&quot;font-size: 12px; text-align: left; background-color: rgb(251, 251, 251);&quot;&gt;agregarTarea&lt;/span&gt;" style="html=1;verticalAlign=bottom;startArrow=oval;startFill=1;endArrow=block;startSize=8;curved=0;rounded=0;" parent="1" source="nWm5HzPbnDfWnMgzl1JM-6" target="nWm5HzPbnDfWnMgzl1JM-2" edge="1">
          <mxGeometry x="-0.0345" width="60" relative="1" as="geometry">
            <mxPoint x="280" y="110" as="sourcePoint" />
            <mxPoint x="579.5" y="110" as="targetPoint" />
            <mxPoint as="offset" />
            <Array as="points">
              <mxPoint x="400" y="90" />
            </Array>
          </mxGeometry>
        </mxCell>
        <mxCell id="nWm5HzPbnDfWnMgzl1JM-8" value="&lt;span style=&quot;font-size: 12px; text-align: left; background-color: rgb(251, 251, 251);&quot;&gt;Tarea&lt;/span&gt;" style="html=1;verticalAlign=bottom;endArrow=block;curved=0;rounded=0;dashed=1;entryX=0.333;entryY=0.623;entryDx=0;entryDy=0;entryPerimeter=0;" parent="1" edge="1">
          <mxGeometry x="0.0019" relative="1" as="geometry">
            <mxPoint x="426.17" y="270" as="sourcePoint" />
            <mxPoint x="270.00000000000006" y="270" as="targetPoint" />
            <mxPoint as="offset" />
          </mxGeometry>
        </mxCell>
        <mxCell id="nWm5HzPbnDfWnMgzl1JM-9" value="&lt;span style=&quot;font-size: 12px; text-align: left; background-color: rgb(251, 251, 251); text-decoration-line: underline;&quot;&gt;asignarMiebreTarea&lt;/span&gt;" style="html=1;verticalAlign=bottom;startArrow=oval;startFill=1;endArrow=block;startSize=8;curved=0;rounded=0;" parent="1" target="nWm5HzPbnDfWnMgzl1JM-4" edge="1">
          <mxGeometry x="-0.0355" width="60" relative="1" as="geometry">
            <mxPoint x="430" y="130" as="sourcePoint" />
            <mxPoint x="575" y="130" as="targetPoint" />
            <mxPoint as="offset" />
          </mxGeometry>
        </mxCell>
        <mxCell id="nWm5HzPbnDfWnMgzl1JM-10" value="&lt;span style=&quot;font-size: 12px; text-align: left; background-color: rgb(251, 251, 251);&quot;&gt;Asignacion&lt;/span&gt;" style="html=1;verticalAlign=bottom;endArrow=block;curved=0;rounded=0;dashed=1;entryX=0.333;entryY=0.623;entryDx=0;entryDy=0;entryPerimeter=0;" parent="1" source="nWm5HzPbnDfWnMgzl1JM-4" edge="1">
          <mxGeometry x="0.0019" relative="1" as="geometry">
            <mxPoint x="620" y="190.00000000000003" as="sourcePoint" />
            <mxPoint x="430" y="190.00000000000003" as="targetPoint" />
            <mxPoint as="offset" />
          </mxGeometry>
        </mxCell>
        <mxCell id="nWm5HzPbnDfWnMgzl1JM-11" value="&lt;div style=&quot;text-align: left;&quot;&gt;&lt;span style=&quot;font-size: 12px; background-color: rgb(251, 251, 251);&quot;&gt;notificarAsignacion&lt;/span&gt;&lt;br&gt;&lt;/div&gt;" style="html=1;verticalAlign=bottom;startArrow=oval;startFill=1;endArrow=block;startSize=8;curved=0;rounded=0;" parent="1" target="nWm5HzPbnDfWnMgzl1JM-13" edge="1">
          <mxGeometry x="-0.0345" width="60" relative="1" as="geometry">
            <mxPoint x="430" y="240" as="sourcePoint" />
            <mxPoint x="784.5000000000002" y="240" as="targetPoint" />
            <mxPoint as="offset" />
          </mxGeometry>
        </mxCell>
        <mxCell id="nWm5HzPbnDfWnMgzl1JM-12" value="&lt;span style=&quot;text-wrap: nowrap;&quot;&gt;NOTIFICACIONES&amp;nbsp;&lt;/span&gt;" style="shape=umlLifeline;perimeter=lifelinePerimeter;whiteSpace=wrap;html=1;container=1;dropTarget=0;collapsible=0;recursiveResize=0;outlineConnect=0;portConstraint=eastwest;newEdgeStyle={&quot;curved&quot;:0,&quot;rounded&quot;:0};" parent="1" vertex="1">
          <mxGeometry x="900" y="10" width="110" height="300" as="geometry" />
        </mxCell>
        <mxCell id="nWm5HzPbnDfWnMgzl1JM-13" value="" style="html=1;points=[[0,0,0,0,5],[0,1,0,0,-5],[1,0,0,0,5],[1,1,0,0,-5]];perimeter=orthogonalPerimeter;outlineConnect=0;targetShapes=umlLifeline;portConstraint=eastwest;newEdgeStyle={&quot;curved&quot;:0,&quot;rounded&quot;:0};" parent="nWm5HzPbnDfWnMgzl1JM-12" vertex="1">
          <mxGeometry x="50" y="210" width="10" height="50" as="geometry" />
        </mxCell>
        <mxCell id="nWm5HzPbnDfWnMgzl1JM-14" value="" style="html=1;points=[[0,0,0,0,5],[0,1,0,0,-5],[1,0,0,0,5],[1,1,0,0,-5]];perimeter=orthogonalPerimeter;outlineConnect=0;targetShapes=umlLifeline;portConstraint=eastwest;newEdgeStyle={&quot;curved&quot;:0,&quot;rounded&quot;:0};" parent="nWm5HzPbnDfWnMgzl1JM-12" vertex="1">
          <mxGeometry x="60" y="226.25" width="10" height="30" as="geometry" />
        </mxCell>
        <mxCell id="nWm5HzPbnDfWnMgzl1JM-29" value="" style="edgeStyle=orthogonalEdgeStyle;rounded=0;orthogonalLoop=1;jettySize=auto;html=1;curved=0;entryX=1;entryY=1;entryDx=0;entryDy=-5;entryPerimeter=0;" parent="nWm5HzPbnDfWnMgzl1JM-12" source="nWm5HzPbnDfWnMgzl1JM-14" target="nWm5HzPbnDfWnMgzl1JM-14" edge="1">
          <mxGeometry relative="1" as="geometry">
            <Array as="points">
              <mxPoint x="140" y="241" />
              <mxPoint x="140" y="251" />
              <mxPoint x="90" y="251" />
            </Array>
          </mxGeometry>
        </mxCell>
        <mxCell id="nWm5HzPbnDfWnMgzl1JM-16" value="enviarNotificacion" style="text;html=1;align=center;verticalAlign=middle;resizable=0;points=[];autosize=1;strokeColor=none;fillColor=none;" parent="1" vertex="1">
          <mxGeometry x="1030" y="240" width="120" height="30" as="geometry" />
        </mxCell>
        <mxCell id="nWm5HzPbnDfWnMgzl1JM-25" value="&lt;span style=&quot;text-wrap: nowrap;&quot;&gt;MIEMBROS DEL EQUIPO&lt;/span&gt;" style="shape=umlLifeline;perimeter=lifelinePerimeter;whiteSpace=wrap;html=1;container=1;dropTarget=0;collapsible=0;recursiveResize=0;outlineConnect=0;portConstraint=eastwest;newEdgeStyle={&quot;curved&quot;:0,&quot;rounded&quot;:0};" parent="1" vertex="1">
          <mxGeometry x="740" y="10" width="110" height="300" as="geometry" />
        </mxCell>
        <mxCell id="nWm5HzPbnDfWnMgzl1JM-26" value="" style="html=1;points=[[0,0,0,0,5],[0,1,0,0,-5],[1,0,0,0,5],[1,1,0,0,-5]];perimeter=orthogonalPerimeter;outlineConnect=0;targetShapes=umlLifeline;portConstraint=eastwest;newEdgeStyle={&quot;curved&quot;:0,&quot;rounded&quot;:0};" parent="nWm5HzPbnDfWnMgzl1JM-25" vertex="1">
          <mxGeometry x="50" y="110" width="10" height="60" as="geometry" />
        </mxCell>
        <mxCell id="nWm5HzPbnDfWnMgzl1JM-27" value="&lt;span style=&quot;font-size: 12px; text-align: left; background-color: rgb(251, 251, 251); text-decoration-line: underline;&quot;&gt;crearAsignacio&lt;/span&gt;" style="html=1;verticalAlign=bottom;startArrow=oval;startFill=1;endArrow=block;startSize=8;curved=0;rounded=0;" parent="1" source="nWm5HzPbnDfWnMgzl1JM-4" edge="1">
          <mxGeometry x="-0.0355" width="60" relative="1" as="geometry">
            <mxPoint x="640" y="140" as="sourcePoint" />
            <mxPoint x="790" y="140" as="targetPoint" />
            <mxPoint as="offset" />
          </mxGeometry>
        </mxCell>
        <mxCell id="nWm5HzPbnDfWnMgzl1JM-28" value="&lt;span style=&quot;font-size: 12px; text-align: left; background-color: rgb(251, 251, 251);&quot;&gt;Miembro del Equipo&lt;/span&gt;" style="html=1;verticalAlign=bottom;endArrow=block;curved=0;rounded=0;dashed=1;entryX=0.333;entryY=0.623;entryDx=0;entryDy=0;entryPerimeter=0;" parent="1" edge="1">
          <mxGeometry x="0.0019" relative="1" as="geometry">
            <mxPoint x="790" y="170.29" as="sourcePoint" />
            <mxPoint x="630" y="170.00000000000003" as="targetPoint" />
            <mxPoint as="offset" />
          </mxGeometry>
        </mxCell>
      </root>
    </mxGraphModel>
  </diagram>
  <diagram id="rtKw4NArsSbLfM92Emle" name="DIAGRAMA DE ACTIVIDADES">
    <mxGraphModel dx="682" dy="813" grid="1" gridSize="10" guides="1" tooltips="1" connect="1" arrows="1" fold="1" page="1" pageScale="1" pageWidth="827" pageHeight="1169" math="0" shadow="0">
      <root>
        <mxCell id="0" />
        <mxCell id="1" parent="0" />
        <mxCell id="aro37k_TyvY4kve_lL1N-1" value="Administrador de proyecto" style="swimlane;horizontal=0;whiteSpace=wrap;html=1;" parent="1" vertex="1">
          <mxGeometry x="930" y="120" width="1680" height="270" as="geometry" />
        </mxCell>
        <mxCell id="aro37k_TyvY4kve_lL1N-2" value="" style="verticalLabelPosition=bottom;verticalAlign=top;html=1;shape=mxgraph.flowchart.on-page_reference;fillColor=#000000" parent="aro37k_TyvY4kve_lL1N-1" vertex="1">
          <mxGeometry x="50" y="50" width="40" height="40" as="geometry" />
        </mxCell>
        <mxCell id="aro37k_TyvY4kve_lL1N-3" value="Iniciar sesión en el sistema SSAP" style="rounded=1;whiteSpace=wrap;html=1;" parent="aro37k_TyvY4kve_lL1N-1" vertex="1">
          <mxGeometry x="140" y="40" width="120" height="60" as="geometry" />
        </mxCell>
        <mxCell id="aro37k_TyvY4kve_lL1N-4" value="" style="edgeStyle=orthogonalEdgeStyle;rounded=0;orthogonalLoop=1;jettySize=auto;html=1;" parent="aro37k_TyvY4kve_lL1N-1" source="aro37k_TyvY4kve_lL1N-2" target="aro37k_TyvY4kve_lL1N-3" edge="1">
          <mxGeometry relative="1" as="geometry" />
        </mxCell>
        <mxCell id="aro37k_TyvY4kve_lL1N-5" value="Ingresar datos solicitados" style="rounded=1;whiteSpace=wrap;html=1;" parent="aro37k_TyvY4kve_lL1N-1" vertex="1">
          <mxGeometry x="490" y="40" width="120" height="60" as="geometry" />
        </mxCell>
        <mxCell id="aro37k_TyvY4kve_lL1N-7" value="" style="edgeStyle=orthogonalEdgeStyle;rounded=0;orthogonalLoop=1;jettySize=auto;html=1;" parent="aro37k_TyvY4kve_lL1N-1" source="aro37k_TyvY4kve_lL1N-11" target="aro37k_TyvY4kve_lL1N-12" edge="1">
          <mxGeometry relative="1" as="geometry" />
        </mxCell>
        <mxCell id="aro37k_TyvY4kve_lL1N-8" value="Si" style="edgeLabel;html=1;align=center;verticalAlign=middle;resizable=0;points=[];" parent="aro37k_TyvY4kve_lL1N-7" vertex="1" connectable="0">
          <mxGeometry x="-0.1571" y="-2" relative="1" as="geometry">
            <mxPoint as="offset" />
          </mxGeometry>
        </mxCell>
        <mxCell id="aro37k_TyvY4kve_lL1N-11" value="¿Hay miembros del equipo disponibles?" style="rhombus;whiteSpace=wrap;html=1;" parent="aro37k_TyvY4kve_lL1N-1" vertex="1">
          <mxGeometry x="729" y="8.13" width="110" height="123.75" as="geometry" />
        </mxCell>
        <mxCell id="aro37k_TyvY4kve_lL1N-12" value="Asigna miembro de equipo a la tarea" style="whiteSpace=wrap;html=1;" parent="aro37k_TyvY4kve_lL1N-1" vertex="1">
          <mxGeometry x="724" y="190" width="120" height="60" as="geometry" />
        </mxCell>
        <mxCell id="aro37k_TyvY4kve_lL1N-13" value="Ingresar a la interfaz del proyecto" style="rounded=1;whiteSpace=wrap;html=1;" parent="aro37k_TyvY4kve_lL1N-1" vertex="1">
          <mxGeometry x="311" y="40" width="120" height="60" as="geometry" />
        </mxCell>
        <mxCell id="aro37k_TyvY4kve_lL1N-14" value="" style="edgeStyle=orthogonalEdgeStyle;rounded=0;orthogonalLoop=1;jettySize=auto;html=1;entryX=0;entryY=0.5;entryDx=0;entryDy=0;" parent="aro37k_TyvY4kve_lL1N-1" source="aro37k_TyvY4kve_lL1N-13" target="aro37k_TyvY4kve_lL1N-5" edge="1">
          <mxGeometry relative="1" as="geometry">
            <mxPoint x="510.9999999999998" y="110" as="targetPoint" />
          </mxGeometry>
        </mxCell>
        <mxCell id="aro37k_TyvY4kve_lL1N-15" value="" style="edgeStyle=orthogonalEdgeStyle;rounded=0;orthogonalLoop=1;jettySize=auto;html=1;" parent="aro37k_TyvY4kve_lL1N-1" source="aro37k_TyvY4kve_lL1N-3" target="aro37k_TyvY4kve_lL1N-13" edge="1">
          <mxGeometry relative="1" as="geometry" />
        </mxCell>
        <mxCell id="aro37k_TyvY4kve_lL1N-19" value="Miembro del equipo" style="swimlane;horizontal=0;whiteSpace=wrap;html=1;startSize=23;" parent="1" vertex="1">
          <mxGeometry x="930" y="390" width="1680" height="160" as="geometry" />
        </mxCell>
        <mxCell id="aro37k_TyvY4kve_lL1N-26" style="edgeStyle=orthogonalEdgeStyle;rounded=0;orthogonalLoop=1;jettySize=auto;html=1;" parent="1" source="aro37k_TyvY4kve_lL1N-12" target="aro37k_TyvY4kve_lL1N-21" edge="1">
          <mxGeometry relative="1" as="geometry" />
        </mxCell>
        <mxCell id="aro37k_TyvY4kve_lL1N-9" style="edgeStyle=orthogonalEdgeStyle;rounded=0;orthogonalLoop=1;jettySize=auto;html=1;" parent="1" source="aro37k_TyvY4kve_lL1N-11" target="aro37k_TyvY4kve_lL1N-23" edge="1">
          <mxGeometry relative="1" as="geometry">
            <mxPoint x="2068" y="190" as="targetPoint" />
          </mxGeometry>
        </mxCell>
        <mxCell id="aro37k_TyvY4kve_lL1N-10" value="No" style="edgeLabel;html=1;align=center;verticalAlign=middle;resizable=0;points=[];" parent="aro37k_TyvY4kve_lL1N-9" vertex="1" connectable="0">
          <mxGeometry x="-0.5856" y="-1" relative="1" as="geometry">
            <mxPoint as="offset" />
          </mxGeometry>
        </mxCell>
        <mxCell id="-OiYYjihNKBFsb_xzdx8-1" value="Notificacion" style="swimlane;horizontal=0;whiteSpace=wrap;html=1;startSize=23;" vertex="1" parent="1">
          <mxGeometry x="930" y="550" width="1680" height="160" as="geometry" />
        </mxCell>
        <mxCell id="aro37k_TyvY4kve_lL1N-21" value="Envia notificacion de asignacion" style="whiteSpace=wrap;html=1;" parent="-OiYYjihNKBFsb_xzdx8-1" vertex="1">
          <mxGeometry x="724" y="60" width="120" height="60" as="geometry" />
        </mxCell>
        <mxCell id="-OiYYjihNKBFsb_xzdx8-13" style="edgeStyle=orthogonalEdgeStyle;rounded=0;orthogonalLoop=1;jettySize=auto;html=1;entryX=0;entryY=0.5;entryDx=0;entryDy=0;" edge="1" parent="1" source="-OiYYjihNKBFsb_xzdx8-11" target="aro37k_TyvY4kve_lL1N-11">
          <mxGeometry relative="1" as="geometry" />
        </mxCell>
        <mxCell id="-OiYYjihNKBFsb_xzdx8-11" value="Obtiene usuarios disponibles" style="rounded=1;whiteSpace=wrap;html=1;arcSize=0;" vertex="1" parent="1">
          <mxGeometry x="1420" y="440" width="120" height="60" as="geometry" />
        </mxCell>
        <mxCell id="-OiYYjihNKBFsb_xzdx8-12" style="edgeStyle=orthogonalEdgeStyle;rounded=0;orthogonalLoop=1;jettySize=auto;html=1;" edge="1" parent="1" source="aro37k_TyvY4kve_lL1N-5" target="-OiYYjihNKBFsb_xzdx8-11">
          <mxGeometry relative="1" as="geometry" />
        </mxCell>
        <mxCell id="aro37k_TyvY4kve_lL1N-27" style="edgeStyle=orthogonalEdgeStyle;rounded=0;orthogonalLoop=1;jettySize=auto;html=1;entryX=0;entryY=0.5;entryDx=0;entryDy=0;" parent="1" source="aro37k_TyvY4kve_lL1N-21" target="aro37k_TyvY4kve_lL1N-23" edge="1">
          <mxGeometry relative="1" as="geometry" />
        </mxCell>
        <mxCell id="-OiYYjihNKBFsb_xzdx8-14" value="Tarea" style="swimlane;horizontal=0;whiteSpace=wrap;html=1;startSize=23;" vertex="1" parent="1">
          <mxGeometry x="930" y="710" width="1680" height="160" as="geometry">
            <mxRectangle x="930" y="710" width="40" height="70" as="alternateBounds" />
          </mxGeometry>
        </mxCell>
        <mxCell id="aro37k_TyvY4kve_lL1N-23" value="Genera un identificador unico" style="whiteSpace=wrap;html=1;" parent="-OiYYjihNKBFsb_xzdx8-14" vertex="1">
          <mxGeometry x="1040" y="70" width="120" height="60" as="geometry" />
        </mxCell>
        <mxCell id="aro37k_TyvY4kve_lL1N-29" value="Asociar la tarea al proyecto&amp;nbsp;" style="whiteSpace=wrap;html=1;" parent="-OiYYjihNKBFsb_xzdx8-14" vertex="1">
          <mxGeometry x="1210" y="70" width="120" height="60" as="geometry" />
        </mxCell>
        <mxCell id="aro37k_TyvY4kve_lL1N-30" style="edgeStyle=orthogonalEdgeStyle;rounded=0;orthogonalLoop=1;jettySize=auto;html=1;" parent="-OiYYjihNKBFsb_xzdx8-14" source="aro37k_TyvY4kve_lL1N-23" target="aro37k_TyvY4kve_lL1N-29" edge="1">
          <mxGeometry relative="1" as="geometry" />
        </mxCell>
        <mxCell id="aro37k_TyvY4kve_lL1N-25" value="Guarda en base de datos" style="whiteSpace=wrap;html=1;" parent="-OiYYjihNKBFsb_xzdx8-14" vertex="1">
          <mxGeometry x="1390" y="70" width="120" height="60" as="geometry" />
        </mxCell>
        <mxCell id="aro37k_TyvY4kve_lL1N-31" style="edgeStyle=orthogonalEdgeStyle;rounded=0;orthogonalLoop=1;jettySize=auto;html=1;" parent="-OiYYjihNKBFsb_xzdx8-14" source="aro37k_TyvY4kve_lL1N-29" target="aro37k_TyvY4kve_lL1N-25" edge="1">
          <mxGeometry relative="1" as="geometry" />
        </mxCell>
        <mxCell id="aro37k_TyvY4kve_lL1N-20" value="" style="ellipse;html=1;shape=endState;fillColor=#000000;strokeColor=#ff0000;" parent="-OiYYjihNKBFsb_xzdx8-14" vertex="1">
          <mxGeometry x="1600" y="80" width="40" height="40" as="geometry" />
        </mxCell>
        <mxCell id="aro37k_TyvY4kve_lL1N-24" style="edgeStyle=orthogonalEdgeStyle;rounded=0;orthogonalLoop=1;jettySize=auto;html=1;" parent="-OiYYjihNKBFsb_xzdx8-14" source="aro37k_TyvY4kve_lL1N-25" target="aro37k_TyvY4kve_lL1N-20" edge="1">
          <mxGeometry relative="1" as="geometry" />
        </mxCell>
      </root>
    </mxGraphModel>
  </diagram>
</mxfile>
